Coordinates
version=1
nRows=21
nColumns=22
inDegrees=yes

Units are S.I. units (second, meters, Newtons, ...)
If the header above contains a line with 'inDegrees', this indicates whether rotational values are in degrees (yes) or radians (no).

endheader
time	pelvis_tilt	pelvis_list	pelvis_rotation	pelvis_tx	pelvis_ty	pelvis_tz	hip_flexion_r	hip_adduction_r	hip_rotation_r	knee_angle_r	ankle_angle_r	subtalar_angle_r	hip_flexion_l	hip_adduction_l	hip_rotation_l	knee_angle_l	ankle_angle_l	subtalar_angle_l	lumbar_extension	lumbar_bending	lumbar_rotation
      0.01000000	     -2.64413503	     -2.20520246	     -2.83655814	     -1.11665023	      0.94533535	      0.76073357	      3.31156481	      0.99057205	    -17.24835998	    -11.72500636	     10.37699043	      3.75730027	      4.27051851	     -3.39179114	    -14.68748850	    -15.76568735	     13.47526201	     -1.57066223	     -8.49787110	     -0.37482177	     -5.04941419
      0.02000000	     -2.66851414	     -2.20176169	     -2.85469888	     -1.11626560	      0.94526953	      0.76109592	      3.29078290	      1.01463738	    -17.26199897	    -11.68363820	     10.38510507	      3.76321471	      4.24239040	     -3.40590009	    -14.70686973	    -15.72061750	     13.50584701	     -1.58824079	     -8.45362508	     -0.36778492	     -5.08428570
      0.03000000	     -2.68132220	     -2.21270953	     -2.87596865	     -1.11581812	      0.94520940	      0.76153418	      3.23959376	      1.06521401	    -17.22338750	    -11.61904514	     10.42028400	      3.78551029	      4.20242547	     -3.44239985	    -14.72826447	    -15.69103933	     13.55258238	     -1.63329157	     -8.42064423	     -0.34269309	     -5.09856256
      0.04000000	     -2.71072028	     -2.20841614	     -2.90060506	     -1.11533389	      0.94512340	      0.76201352	      3.22109598	      1.09567199	    -17.22148052	    -11.58725494	     10.44391789	      3.79154231	      4.17132683	     -3.46447133	    -14.76416226	    -15.64591720	     13.56261722	     -1.64072132	     -8.36836929	     -0.33174720	     -5.12680929
      0.05000000	     -2.73862516	     -2.21180124	     -2.94210755	     -1.11483543	      0.94503318	      0.76257828	      3.19054725	      1.14606779	    -17.15962721	    -11.53452795	     10.49704472	      3.80214002	      4.14009955	     -3.50133070	    -14.80773851	    -15.61450330	     13.58781712	     -1.65030703	     -8.32177546	     -0.31595976	     -5.12638040
      0.06000000	     -2.77155640	     -2.20773342	     -2.97183371	     -1.11430221	      0.94493467	      0.76314483	      3.17474366	      1.18259430	    -17.14775116	    -11.50763370	     10.52636865	      3.80461868	      4.10948675	     -3.52914847	    -14.84328554	    -15.57179903	     13.60003808	     -1.65111298	     -8.26711695	     -0.30510775	     -5.14887652
      0.07000000	     -2.80746308	     -2.21224530	     -3.01948409	     -1.11377995	      0.94482674	      0.76378729	      3.15657163	      1.23846984	    -17.07588838	    -11.46653150	     10.58592267	      3.80329459	      4.08848063	     -3.57331384	    -14.88658882	    -15.54899198	     13.63120094	     -1.64302383	     -8.21665399	     -0.29065543	     -5.13718617
      0.08000000	     -2.84464324	     -2.20753721	     -3.05112259	     -1.11323089	      0.94472030	      0.76441326	      3.14845087	      1.27754458	    -17.06664356	    -11.44664262	     10.61436486	      3.80098157	      4.06191863	     -3.60432049	    -14.91873033	    -15.50813251	     13.64579004	     -1.63738184	     -8.16387920	     -0.28309725	     -5.15998655
      0.09000000	     -2.89329350	     -2.21246186	     -3.10304843	     -1.11270242	      0.94458034	      0.76511428	      3.14951300	      1.33760271	    -16.98104898	    -11.41722586	     10.67941392	      3.77857000	      4.05829549	     -3.65553991	    -14.96757633	    -15.49627743	     13.69239701	     -1.60364919	     -8.10432152	     -0.27123721	     -5.13567262
      0.10000000	     -2.93631873	     -2.20670426	     -3.13704411	     -1.11212286	      0.94444757	      0.76578792	      3.14782317	      1.37837894	    -16.96583414	    -11.40312927	     10.70817318	      3.76540452	      4.03567604	     -3.68990315	    -15.00765369	    -15.45636052	     13.71264363	     -1.58729776	     -8.04604066	     -0.26721910	     -5.15209529
      0.11000000	     -2.99517681	     -2.20862248	     -3.20644255	     -1.11157187	      0.94427511	      0.76654831	      3.16378466	      1.43849168	    -16.86418011	    -11.38074693	     10.77787082	      3.71007081	      4.03877430	     -3.74315004	    -15.08114296	    -15.44587256	     13.77292637	     -1.52353717	     -7.98042129	     -0.26042032	     -5.10906435
      0.12000000	     -3.03880605	     -2.19998763	     -3.24574847	     -1.11094454	      0.94412797	      0.76726053	      3.15839868	      1.47772150	    -16.86288748	    -11.36200045	     10.80390070	      3.69512982	      4.01061859	     -3.77580235	    -15.12122869	    -15.40210357	     13.79195748	     -1.50660259	     -7.92569573	     -0.26022178	     -5.12861486
      0.13000000	     -3.08729871	     -2.20515669	     -3.31512196	     -1.11029055	      0.94394692	      0.76805981	      3.15071502	      1.54427195	    -16.75295526	    -11.33264210	     10.88662814	      3.61751209	      3.99450491	     -3.83581969	    -15.20691616	    -15.39196887	     13.86940648	     -1.41880315	     -7.86190845	     -0.25067133	     -5.07199729
      0.14000000	     -3.13030859	     -2.19785308	     -3.35047594	     -1.10955459	      0.94378415	      0.76880140	      3.12991543	      1.58819654	    -16.75518814	    -11.30278144	     10.91878084	      3.59751510	      3.95964641	     -3.87175981	    -15.24885238	    -15.34950737	     13.89208288	     -1.39590495	     -7.79684366	     -0.24778814	     -5.08400169
      0.15000000	     -3.16316494	     -2.21394781	     -3.41233435	     -1.10881624	      0.94361444	      0.76963901	      3.08952955	      1.67049791	    -16.66010536	    -11.25520186	     11.00428320	      3.52025607	      3.92601475	     -3.94536175	    -15.31397676	    -15.35060834	     13.97811127	     -1.30777407	     -7.75070277	     -0.22647700	     -5.04023713
      0.16000000	     -3.19695397	     -2.22446183	     -3.46018407	     -1.10799619	      0.94344883	      0.77045405	      3.04456416	      1.74167811	    -16.61961693	    -11.20901878	     11.05526646	      3.44737857	      3.88651078	     -4.00977816	    -15.36734966	    -15.34145609	     14.03344088	     -1.23005972	     -7.69314410	     -0.20442609	     -5.02660146
      0.17000000	     -3.23045417	     -2.23654758	     -3.49688960	     -1.10713980	      0.94327806	      0.77128775	      2.99870286	      1.81525651	    -16.58795164	    -11.16876003	     11.11560518	      3.40066112	      3.85010143	     -4.07723551	    -15.39755245	    -15.34061221	     14.09483101	     -1.17152576	     -7.63498272	     -0.18322770	     -5.02551921
      0.18000000	     -3.26368245	     -2.25339195	     -3.52926622	     -1.10623863	      0.94310259	      0.77214674	      2.95089654	      1.89497273	    -16.55831899	    -11.13229600	     11.18018006	      3.36252927	      3.81806843	     -4.15348258	    -15.42079424	    -15.35502102	     14.16716380	     -1.11258649	     -7.57487449	     -0.15775014	     -5.03095037
      0.19000000	     -3.29585282	     -2.27250744	     -3.55800613	     -1.10529989	      0.94292212	      0.77303591	      2.90140011	      1.97767616	    -16.53073603	    -11.10220399	     11.24716901	      3.32699443	      3.79161674	     -4.23660002	    -15.43829711	    -15.38560437	     14.24775114	     -1.04438383	     -7.51521706	     -0.13204107	     -5.04490857
      0.20000000	     -3.32541596	     -2.29345153	     -3.58627373	     -1.10432435	      0.94273789	      0.77395899	      2.84844045	      2.06363280	    -16.49977081	    -11.07611647	     11.31748566	      3.28995585	      3.76951469	     -4.32687834	    -15.45490460	    -15.43547550	     14.33589647	     -0.96218807	     -7.45741454	     -0.10619918	     -5.06533750
      0.21000000	     -3.35064719	     -2.31502078	     -3.61879219	     -1.10331971	      0.94255181	      0.77492054	      2.78904800	      2.15241399	    -16.46064497	    -11.05092460	     11.38817877	      3.24989596	      3.75062481	     -4.42224072	    -15.47321829	    -15.50546453	     14.42643411	     -0.86991436	     -7.40512728	     -0.08241190	     -5.08839204
